<?xml version="1.0" encoding="UTF-8"?>
<svg id="Layer_1" xmlns="http://www.w3.org/2000/svg" version="1.1" viewBox="0 0 200 200">
  <!-- Generator: Adobe Illustrator 30.2.1, SVG Export Plug-In . SVG Version: 2.1.1 Build 1)  -->
  <defs>
    <style>
      .st0 {
        fill: #9daeb6;
      }
    </style>
  </defs>
  <path class="st0" d="M195.5,103.2v5.9l-4.6,20.3-39.2,23.9c-5.3,4.6-9.2,11.7-14,17.4l2.2,20.5c0,.8-.6,2.9-1.3,3.3s-3,.6-3.8.2l-23.9-9.8c-2.6-6.3-4-12.3-7-18.2s-8.1-8.8-11.2-13.7-4.6-10.5-8-15.2-7.3-7.7-11.2-9.5-12-.2-17,.2l-3.8,8.5c-.6,1.3-2.7,3.4-3.9,3.7s-4.4-1.3-6-1.8c-9.8-3.4-15.9-9.6-18.7-19.6s-5.4-8-8-10.4l-14-13.2c-2-1.9-4.2-3.6-6.3-4.6v-2c.4-.1,2.3-.6,3-.6l51.5-.3V5.1c.1,0,46.7,0,46.7,0l.3,36c3.6,2.7,8,3.4,11.7,4.8,4.7,1.8,8.5,4,13.9,3.3s4.1,2,5.5,3.5c22.4-2.7,18.7,6.9,30.4,3.2,15.2-4.8,10.7-3.4,29.3,3.9,1.4,22.1-3.9,24.6,7.7,43.3Z"/>
</svg>